<?xml version="1.0" encoding="UTF-8" standalone="no"?>
<!-- Created with Inkscape (http://www.inkscape.org/) -->

<svg
   xmlns:dc="http://purl.org/dc/elements/1.1/"
   xmlns:cc="http://creativecommons.org/ns#"
   xmlns:rdf="http://www.w3.org/1999/02/22-rdf-syntax-ns#"
   xmlns:svg="http://www.w3.org/2000/svg"
   xmlns="http://www.w3.org/2000/svg"
   xmlns:sodipodi="http://sodipodi.sourceforge.net/DTD/sodipodi-0.dtd"
   xmlns:inkscape="http://www.inkscape.org/namespaces/inkscape"
   width="200"
   height="200"
   viewBox="0 0 200 200"
   id="svg4148"
   version="1.1"
   inkscape:version="0.91 r13725"
   sodipodi:docname="logo.svg">
  <defs
     id="defs4150" />
  <sodipodi:namedview
     id="base"
     pagecolor="#ffffff"
     bordercolor="#666666"
     borderopacity="1.0"
     inkscape:pageopacity="0.0"
     inkscape:pageshadow="2"
     inkscape:zoom="0.9175"
     inkscape:cx="342.23433"
     inkscape:cy="437.19346"
     inkscape:document-units="px"
     inkscape:current-layer="layer1"
     showgrid="false"
     units="px"
     inkscape:window-width="1207"
     inkscape:window-height="1257"
     inkscape:window-x="661"
     inkscape:window-y="44"
     inkscape:window-maximized="0" />
  <metadata
     id="metadata4153">
    <rdf:RDF>
      <cc:Work
         rdf:about="">
        <dc:format>image/svg+xml</dc:format>
        <dc:type
           rdf:resource="http://purl.org/dc/dcmitype/StillImage" />
        <dc:title></dc:title>
      </cc:Work>
    </rdf:RDF>
  </metadata>
  <g
     inkscape:label="Layer 1"
     inkscape:groupmode="layer"
     id="layer1"
     transform="translate(0,-852.36216)">
    <path
       style="fill:#000000;fill-opacity:1;stroke:none;stroke-width:0.80900002;stroke-miterlimit:4;stroke-dasharray:none;stroke-opacity:1"
       d="m 75,902.36216 0,25 -12.5,0 a 37.5,37.5 0 0 0 -37.5,37.5 37.5,37.5 0 0 0 37.5,37.50004 37.5,37.5 0 0 0 37.5,-37.50004 l 0,-12.5 25,0 0,12.5 a 37.5,37.5 0 0 0 37.5,37.50004 l 12.5,0 0,-25.00004 -12.5,0 a 12.5,12.5 0 0 1 -12.5,-12.5 l 0,-12.5 25,0 0,-25 -25,0 0,-25 -25,0 0,25 -25,0 0,-25 -25,0 z m -12.5,50 12.5,0 0,12.5 a 12.5,12.5 0 0 1 -12.5,12.5 12.5,12.5 0 0 1 -12.5,-12.5 12.5,12.5 0 0 1 12.5,-12.5 z"
       id="path4156"
       inkscape:connector-curvature="0" />
  </g>
</svg>
